<svg width="407" height="840" viewBox="0 0 407 840" fill="none" xmlns="http://www.w3.org/2000/svg">
<rect x="2" y="2" width="403" height="836" rx="56" fill="#828282"/>
<path fill-rule="evenodd" clip-rule="evenodd" d="M62 2H345C377.032 2 403 27.9675 403 60V185.171C404.165 185.583 405 186.694 405 188V271C405 272.306 404.165 273.417 403 273.829V780C403 812.032 377.032 838 345 838H62C29.9675 838 4 812.032 4 780V286.829C2.83481 286.417 2 285.306 2 284V236C2 234.694 2.83481 233.583 4 233.171V214.829C2.83481 214.417 2 213.306 2 212V164C2 162.694 2.83481 161.583 4 161.171V136.829C2.83481 136.417 2 135.306 2 134V109C2 107.694 2.83481 106.583 4 106.171V60C4 27.9675 29.9675 2 62 2Z" stroke="black" stroke-opacity="0.5" stroke-width="4"/>
<mask id="mask0_4614_118" style="mask-type:alpha" maskUnits="userSpaceOnUse" x="16" y="14" width="375" height="812">
<path fill-rule="evenodd" clip-rule="evenodd" d="M16.0625 57.5812C16.021 58.3822 16 59.1887 16 60V780C16 805.405 36.5948 826 62 826H345C370.405 826 391 805.405 391 780V60C391 59.9008 391 59.8016 390.999 59.7025C390.839 34.4344 370.306 14 345 14H314.916C311.47 15.2126 309 18.4966 309 22.3572C309 34.5864 299.086 44.5 286.857 44.5H119.143C106.914 44.5 97 34.5864 97 22.3572C97 18.4966 94.5299 15.2126 91.0839 14H62C50.5375 14 40.0542 18.1925 32 25.1278C28.8973 27.7994 26.155 30.8781 23.8561 34.281C19.3186 40.9974 16.5083 48.9766 16.0625 57.5812Z" fill="#D9D9D9"/>
</mask>
<g mask="url(#mask0_4614_118)">
<rect width="375" height="812" transform="translate(16 14)" fill="white"/>
</g>
</svg>
